<svg version="1.1" viewBox="0.0 0.0 512.0 512.0" fill="none" stroke="none" stroke-linecap="square" stroke-miterlimit="10" xmlns:xlink="http://www.w3.org/1999/xlink" xmlns="http://www.w3.org/2000/svg"><clipPath id="p.0"><path d="m0 0l512.0 0l0 512.0l-512.0 0l0 -512.0z" clip-rule="nonzero"/></clipPath><g clip-path="url(#p.0)"><path fill="#000000" fill-opacity="0.0" d="m0 0l512.0 0l0 512.0l-512.0 0z" fill-rule="evenodd"/><path fill="#000000" fill-opacity="0.0" d="m403.99167 329.1929l0 -213.95274" fill-rule="evenodd"/><path stroke="#f3f3f3" stroke-width="24.0" stroke-linejoin="round" stroke-linecap="butt" d="m403.99167 329.1929l0 -213.95274" fill-rule="evenodd"/><path fill="#000000" fill-opacity="0.0" d="m107.991684 329.1929l0 -213.95274" fill-rule="evenodd"/><path stroke="#f3f3f3" stroke-width="24.0" stroke-linejoin="round" stroke-linecap="butt" d="m107.991684 329.1929l0 -213.95274" fill-rule="evenodd"/><path fill="#000000" fill-opacity="0.0" d="m150.41995 157.01181l211.1496 0l0 239.74805l-211.1496 0z" fill-rule="evenodd"/><path stroke="#f3f3f3" stroke-width="24.0" stroke-linejoin="round" stroke-linecap="butt" d="m150.41995 157.01181l211.1496 0l0 239.74805l-211.1496 0z" fill-rule="evenodd"/><path fill="#000000" fill-opacity="0.0" d="m40.220474 187.24016l0 0c0 -39.764496 31.127884 -72.0 69.52608 -72.0l292.5069 0l0 0c38.398193 0 69.52609 32.235504 69.52609 72.0z" fill-rule="evenodd"/><path fill="#000000" fill-opacity="0.0" d="m40.220474 187.24016l0 0c0 -39.764496 31.127884 -72.0 69.52608 -72.0l292.5069 0l0 0c38.398193 0 69.52609 32.235504 69.52609 72.0" fill-rule="evenodd"/><path stroke="#f3f3f3" stroke-width="24.0" stroke-linejoin="round" stroke-linecap="butt" d="m40.220474 187.24016l0 0c0 -39.764496 31.127884 -72.0 69.52608 -72.0l292.5069 0l0 0c38.398193 0 69.52609 32.235504 69.52609 72.0" fill-rule="evenodd"/><path fill="#000000" fill-opacity="0.0" d="m40.220474 186.46204l0 140.81891" fill-rule="evenodd"/><path stroke="#f3f3f3" stroke-width="24.0" stroke-linejoin="round" stroke-linecap="butt" d="m40.220474 186.46204l0 140.81891" fill-rule="evenodd"/><path fill="#000000" fill-opacity="0.0" d="m471.77954 186.46204l0 140.81891" fill-rule="evenodd"/><path stroke="#f3f3f3" stroke-width="24.0" stroke-linejoin="round" stroke-linecap="butt" d="m471.77954 186.46204l0 140.81891" fill-rule="evenodd"/></g></svg>